<svg width="362" xmlns="http://www.w3.org/2000/svg" height="345" fill="none"><g style="fill: rgb(0, 0, 0);"><rect rx="0" ry="0" width="362" height="345" style="fill: rgb(255, 255, 255);" class="fills"/><rect rx="0" ry="0" width="362" height="345" style="fill: rgb(255, 255, 255);" class="fills"/><rect rx="0" ry="0" width="362" height="345" style="fill: rgb(255, 255, 255);" class="fills"/><g clip-path="url(#a)" style="fill: rgb(0, 0, 0);"><defs><clipPath id="a" class="svg-def" transform="matrix(.80444 0 0 .76667 30.167 28.75)"><path d="M71.508 66h221.25v229H71.508Zm0 0"/></clipPath></defs><path d="M154.309 82.321a94.72 94.72 0 0 1 8.739-1.665 89.826 89.826 0 0 1 4.424-.527 91.65 91.65 0 0 1 4.447-.324 95.88 95.88 0 0 1 4.455-.114 91.892 91.892 0 0 1 4.456.09c1.487.066 2.967.165 4.447.297a94.437 94.437 0 0 1 8.824 1.213c1.458.269 2.909.572 4.355.907A94.904 94.904 0 0 1 207 84.621a93.271 93.271 0 0 1 8.258 3.198 96.395 96.395 0 0 1 3.997 1.881 94.655 94.655 0 0 1 3.897 2.066 92.038 92.038 0 0 1 14.401 9.988c1.112.943 2.2 1.908 3.262 2.899a91.272 91.272 0 0 1 6.061 6.235 89.095 89.095 0 0 1 5.399 6.765 88.752 88.752 0 0 1 4.685 7.233 88.297 88.297 0 0 1 2.059 3.77 82.64 82.64 0 0 1 1.866 3.864 84.291 84.291 0 0 1 3.133 7.96 81.825 81.825 0 0 1 1.678 5.624l-1.405.467a77.492 77.492 0 0 0-.443-1.65 83.027 83.027 0 0 0-2.702-8.023 81.953 81.953 0 0 0-1.656-3.908 85.723 85.723 0 0 0-3.9-7.559 88.833 88.833 0 0 0-2.237-3.636 85.82 85.82 0 0 0-7.793-10.215 89.89 89.89 0 0 0-2.935-3.151 84.424 84.424 0 0 0-3.095-3.006 86.563 86.563 0 0 0-6.631-5.568 89.651 89.651 0 0 0-10.938-7.124 90.097 90.097 0 0 0-7.85-3.87 88.09 88.09 0 0 0-4.063-1.653 91.188 91.188 0 0 0-8.356-2.731 95.243 95.243 0 0 0-8.597-1.938 89.045 89.045 0 0 0-4.365-.664 95.347 95.347 0 0 0-8.802-.719 94.264 94.264 0 0 0-4.418-.048 94.258 94.258 0 0 0-21.836 2.83c.22-.533.437-1.069.635-1.617ZM89.095 188.148c.12.449.239.895.365 1.347.383 1.36.798 2.714 1.251 4.052a83.502 83.502 0 0 0 3.12 7.907 85.172 85.172 0 0 0 1.86 3.836 85.859 85.859 0 0 0 4.302 7.385 87.685 87.685 0 0 0 2.429 3.531 87.982 87.982 0 0 0 5.392 6.702 86.91 86.91 0 0 0 2.948 3.154 88.953 88.953 0 0 0 13.298 11.131 90.146 90.146 0 0 0 3.661 2.375 93.4 93.4 0 0 0 3.781 2.205 92.91 92.91 0 0 0 24.629 9.289c1.436.321 2.882.608 4.337.86 1.452.251 2.91.47 4.374.656 1.464.185 2.932.335 4.406.449a94.34 94.34 0 0 0 4.421.246c1.477.044 2.954.056 4.431.035 1.477-.023 2.95-.08 4.424-.17a94.396 94.396 0 0 0 4.412-.381 88.783 88.783 0 0 0 4.387-.584 93.107 93.107 0 0 0 8.657-1.778c-.23.536-.453 1.072-.66 1.62a92.68 92.68 0 0 1-4.355.949 96.133 96.133 0 0 1-22.217 1.677 97.523 97.523 0 0 1-4.459-.284 96.89 96.89 0 0 1-8.846-1.192 93.617 93.617 0 0 1-4.367-.902 93.637 93.637 0 0 1-8.57-2.405 94.8 94.8 0 0 1-8.286-3.189 93.165 93.165 0 0 1-7.919-3.944 93.143 93.143 0 0 1-3.799-2.24 90.09 90.09 0 0 1-7.234-5.002 89.43 89.43 0 0 1-6.69-5.648 88.956 88.956 0 0 1-3.123-3.048 90.914 90.914 0 0 1-5.757-6.517 88.4 88.4 0 0 1-5.066-7.02 88.795 88.795 0 0 1-4.327-7.454 85.03 85.03 0 0 1-1.869-3.872 83.3 83.3 0 0 1-3.143-7.975 86.23 86.23 0 0 1-1.263-4.091c-.116-.41-.226-.83-.339-1.243Zm0 0" fill-rule="evenodd" style="fill: rgb(61, 59, 58);" class="fills"/></g><path d="M151.584 164.473c.559.249.996.575 1.307.982.317.402.478.863.478 1.39 0 1.03-.359 1.791-1.069 2.276-.713.488-1.602.731-2.664.731h-3.57v-10.206h3.142c1.138 0 2.03.221 2.677.658.654.441.981 1.076.981 1.905 0 .512-.113.958-.339 1.342-.22.383-.535.692-.943.922Zm-3.407-.659h1.283c.383 0 .681-.11.892-.335.217-.222.327-.503.327-.839 0-.341-.123-.602-.365-.778-.245-.183-.578-.276-1.005-.276h-1.132Zm1.358 4.169c.493 0 .892-.096 1.194-.287.308-.192.465-.474.465-.851 0-.725-.603-1.09-1.81-1.09h-1.207v2.228ZM172.426 167.851h-3.557l-.88 2.001h-2.074l4.827-10.614h.125l4.827 10.614h-2.439Zm-.704-1.689-1.031-2.479-1.081 2.479ZM194.609 162.113c-.93-.494-1.741-.742-2.426-.742-.471 0-.836.089-1.093.263-.252.177-.377.44-.377.791 0 .329.182.617.553.862.377.24.873.473 1.495.695.503.177.934.38 1.295.611.358.225.657.536.892.934.242.393.365.896.365 1.51 0 .527-.148 1.015-.44 1.461-.286.449-.704.803-1.257 1.066-.553.264-1.213.396-1.973.396-.648 0-1.282-.09-1.911-.264a6.24 6.24 0 0 1-1.76-.826l.931-1.57c.367.258.791.467 1.269.635.478.168.905.252 1.282.252.443 0 .83-.087 1.157-.264.333-.183.502-.479.502-.886 0-.527-.521-.986-1.558-1.378a14.848 14.848 0 0 1-1.534-.659 3.218 3.218 0 0 1-1.056-.922c-.295-.398-.439-.899-.439-1.498 0-.877.301-1.584.905-2.12.609-.533 1.42-.826 2.425-.874.795 0 1.462.09 1.999.263a6.904 6.904 0 0 1 1.559.719ZM216.318 159.646v1.94h-5.192v2.18h4.601v1.941h-4.601v2.204h5.405v1.941h-7.516v-10.206ZM127.878 201.511v.946h-5.455c.066-.086.641-.916 1.722-2.491a207.949 207.949 0 0 1 1.86-2.72h-2.4a.992.992 0 0 1-.541-.155c-.16-.111-.239-.243-.239-.396v-.706h.968v.119c0 .096.013.153.038.168.031.018.107.024.226.024h3.771l-3.633 5.211ZM133.722 200.241c0 .24.063.464.188.671.132.201.308.359.528.479.226.12.472.18.742.18.276 0 .528-.06.754-.18.233-.12.415-.278.54-.479a1.23 1.23 0 0 0 .202-.671V196.3h1.018v3.965c0 .44-.113.833-.34 1.174-.22.345-.521.611-.905.803-.386.191-.81.287-1.269.287-.462 0-.886-.096-1.27-.287a2.216 2.216 0 0 1-.892-.803 2.12 2.12 0 0 1-.327-1.174V196.3h1.031ZM146.449 202.457l-1.458-2.144h-1.043v2.144h-1.031V196.3h1.81c.72 0 1.298.177 1.735.527.433.354.653.836.653 1.45 0 .383-.085.739-.251 1.066-.17.32-.434.569-.792.743l1.571 2.371Zm-2.501-3.09h.93c.408 0 .707-.108.892-.324a1.067 1.067 0 0 0 .176-1.21.929.929 0 0 0-.364-.407c-.17-.12-.396-.18-.679-.18h-.955ZM153.443 196.3v6.157h-1.031V196.3ZM158.134 197.486c.107-.102.195-.234.264-.395.075-.159.113-.324.113-.491 0-.03-.006-.096-.013-.192l.78-.06c.006.081.012.141.012.18 0 .224-.063.449-.188.671a1.371 1.371 0 0 1-.453.503ZM167.392 197.558c-.553-.279-1.05-.419-1.483-.419-.321 0-.572.069-.755.203a.651.651 0 0 0-.276.551c0 .234.116.429.352.587.232.153.559.306.98.456.318.113.591.236.817.371.226.138.409.323.553.563.151.239.226.539.226.898 0 .33-.084.623-.251.887a1.79 1.79 0 0 1-.741.635c-.327.161-.714.239-1.157.239-.396 0-.779-.057-1.156-.167a3.557 3.557 0 0 1-1.006-.492l.453-.766c.216.161.477.293.779.395.302.105.578.156.83.156.317 0 .593-.072.829-.216.233-.144.352-.362.352-.659 0-.239-.1-.437-.302-.599-.194-.158-.471-.302-.829-.431a6.463 6.463 0 0 1-.905-.383 1.902 1.902 0 0 1-.629-.527c-.176-.231-.264-.518-.264-.863 0-.503.176-.904.528-1.21.359-.311.833-.479 1.421-.503.427 0 .798.048 1.118.144.327.096.629.228.905.395ZM180.145 196.3v5.211h3.192v.946h-4.223V196.3ZM189.285 196.3v6.157h-1.031V196.3ZM200.324 196.3v6.373h-.038l-4.651-4.3.025 4.084h-1.043v-6.373h.05l4.639 4.361-.013-4.145ZM209.943 196.3v.946h-3.256v1.642h2.891v.946h-2.891v1.677h3.369v.946h-4.4V196.3ZM218.364 201.008h-2.351l-.628 1.449h-1.019l2.854-6.408h.063l2.865 6.408h-1.194Zm-.352-.839-.805-1.952-.842 1.952ZM229.926 201.894c-.176.153-.487.297-.93.432a4.147 4.147 0 0 1-1.207.203c-.678 0-1.279-.125-1.797-.383a2.903 2.903 0 0 1-1.182-1.078 2.92 2.92 0 0 1-.414-1.545c0-.695.144-1.288.439-1.785a2.977 2.977 0 0 1 1.207-1.126 3.689 3.689 0 0 1 1.672-.384c.368 0 .719.045 1.056.132.333.081.628.189.88.323l-.327.911a2.977 2.977 0 0 0-.717-.264 3.162 3.162 0 0 0-.766-.107c-.739 0-1.32.197-1.748.586-.421.384-.628.929-.628 1.63 0 .416.094.784.289 1.102.201.32.478.569.83.742.358.177.77.264 1.231.264.208 0 .406-.015.591-.048.192-.039.355-.096.49-.168v-1.018h-1.219v-.946h2.25ZM239.342 196.3v.946h-3.255v1.642h2.891v.946h-2.891v1.677h3.368v.946h-4.399V196.3Zm0 0" class="fills"/><path d="M90.274 196c1.473-.137 2.947-.551 3.73-.965.392-.141.884-.415 1.082-.415.194 0 .392 0 .489-.136 0 0 .295-.278.589-.278 2.16-.829 6.285-3.588 9.524-6.488l1.57-1.38.884-.828 2.847-2.901c1.865-1.794 5.498-5.937 9.034-10.353l2.257-2.76 1.276-1.657 2.062-2.9.884-1.102 11.191-14.911 1.474-2.072.884-1.102c.489-.829 1.962-3.174 2.16-3.315l.783-1.101 1.376-2.072c.884-1.38 2.06-3.451 2.06-3.729 0-.137.1-.137.197-.137 0 0 .198-.136.295-.414l.787-1.243.686-1.102.784-1.521 1.279-2.344.687-1.385.294-.409c0-.141 1.765-3.452 2.16-4.28l.489-.97.59-.965c.1-.274.589-1.102.981-2.072.492-.965.884-1.653.984-1.653.097 0 .097-.141.097-.278.097-.136.198-.692.492-1.242.489-1.243 1.866-6.352 2.257-8.419.59-2.764.687-5.523.198-6.352-1.376-2.486-5.499-2.9-10.997-1.379l-1.768.551-.589.277c-.489.137-4.909 2.209-5.499 2.623l-2.059 1.243c-2.357 1.379-3.044 1.794-3.241 2.208-.098.273-.198.273-.198.137h-.097a2.087 2.087 0 0 1-.687.551l-1.376 1.106-.881.551c-.1-.137.982-1.931 1.079-1.931.097 0 .197-.141.097-.141 0-.136.197-.551.492-.965.884-1.102 1.962-2.9 2.257-3.451.198-.414.492-.829.69-.965.194-.278.392-.415.392-.551l.589-.829c.392-.414.884-1.243 1.276-1.935l.981-1.516c.492-.415.492-.829.197-1.107-.395-.273-.492-.273-.786-.136l-.59.273-.589.141c-.097.137-.489.137-.981.273l-7.558.415c-2.357.141-3.044.277-6.088.828l-2.846.556-1.082.136c-.294 0-2.846.688-3.927.966l-7.953 1.935-9.129 2.481c-.787.141-5.401 1.657-7.169 2.349l-1.962.829c-1.865.688-5.693 2.623-6.48 3.31l-2.357 1.658-.981.828c-.884.829-1.865 1.935-2.257 2.623-.492.829-.787 2.486-.492 2.764.391.136.589-.142.686-.829.1-.414.295-.97.395-1.106.489-.829 1.962-2.345 2.944-3.037l.981-.966c.395-.414 2.062-1.379 3.928-2.486l1.178-.692.492-.273c.195 0 .59-.141.784-.278 1.082-.828 10.407-4.002 14.335-4.967l2.944-.829c1.081-.141 2.849-.692 2.946-.828.098 0 .59-.137 1.079-.137l.984-.278c.097-.136.295-.136.589-.136.195 0 .982-.141 1.668-.415l6.088-1.384.981-.136 1.865-.415 3.436-.551 1.179-.136 3.241-.278 6.968-.278c.493-.136.982-.136 1.082 0 .194 0 .194.141-.1.692l-.687.829c-.489.688-1.078 1.38-1.373 1.931-.1.277-.295.414-.295.277-.1 0-.1.137-.197.415 0 .136-.295.687-.589.965a79.07 79.07 0 0 0-2.355 3.451l-.884 1.38c-.1.141-.197.414-.294.692-.101.136-.198.273-.295.273-.1 0-.1 0-.197.141 0 .137-.098.414-.295.829l-1.179 1.794c-.392.828-1.276 2.071-1.962 2.759-.589.829-1.179 1.657-1.276 1.935-.197.687-1.473 2.896-1.671 2.759-.097 0-.194 0-.194.278.097.136-1.179 2.345-1.768 3.173-.392.415-.687.829-1.082 1.658-.097.414-.391.692-.489.828-.097.137-.197.274-.197.415 0 .136-.097.273-.194.414-.198 0-.198.137-.198.273 0 0 0 .278-.197.415l-.392.692c-.097.277-.295.551-.392.551 0 0-.1 0-.1.141 0 .136-.195.551-.392.824l-.489.692-.101.414-1.865 3.037c-.097.278-.294.551-.392.414-.097 0-.197 0-.197.137.1.278-.589 1.38-.784 1.38-.1 0-.197 0-.197.141 0 .136.097.136.197.136.097-.136.097 0-.1.137l-1.47 2.213c-.198.136-1.376 2.067-2.947 4.689-.295.415-.589.692-.589.692-.098-.136-.195 0-.098 0 0 .137-.097.551-.294.829l-3.436 5.66a.772.772 0 0 0-.295.551c0 .141-.197.414-.294.555l-.492.824c-.098.556-.784 1.521-1.768 2.35-2.746 2.485-8.148 8.696-8.934 10.353l-1.176 1.931c-1.965 3.037-3.928 6.766-5.498 10.354l-.884 2.486-.59 1.379-.884 2.208-.391 1.243c-.59 1.658-.59 1.935-.392 4.003.097 1.106.291 2.349.489 2.763l.197 1.102c0 .278 1.179 3.037 1.373 3.178l.687.829c.197.273.884.824 1.376 1.102.686.414.981.414 1.865.414Zm-1.081-1.106c-.881-.274-2.257-1.517-2.552-2.345-.097-.415-.295-.692-.489-.829-.1-.137-.198-.273-.198-.414 0-.137-.197-.966-.686-2.623-.69-2.486-.589-4.553.489-7.039l.69-1.794.489-1.521.492-1.243c.686-1.93 4.122-8.833 5.301-10.49.294-.414.492-.829.492-.965l2.059-2.9c.198-.137.395-.415.395-.551 0-.415 4.22-5.387 4.514-5.387.101 0 .198-.136.198-.136 0-.278.392-.829.589-.829l.687-.551c1.178-1.38 1.078-1.38 1.078-.965 0 .136-.097.273-.194.414l-.787 1.38-1.47 2.622-.69 1.38-1.078 1.935c-4.223 7.312-5.793 10.349-5.891 12.284-.1.966-.1.966.295.966.392 0 .489-.137.881-.966.295-.551.589-1.379.787-1.794.492-1.379 1.667-3.729 4.417-8.423l1.57-2.759c.395-.829 1.768-3.315 2.455-4.417l.492-.828.492-1.107 1.276-2.344c.981-1.658 2.943-3.866 5.498-5.66l.589-.551 1.571-1.243 1.865-1.657c.687-.692 2.16-1.794 2.944-2.35.294-.136 1.57-1.379 2.16-2.067.197-.141.492-.414.589-.277.1 0 .197-.137.197-.278.098 0 .489-.414.982-.829l4.909-4.002.492-.414c.294-.137.392-.274.392-.415.097 0 .097-.136.294-.136.097 0 .489-.278.981-.692.493-.415.982-.688.982-.688.1 0 .492-.278.981-.692.395-.278.884-.551.984-.551.097 0 .295-.278.489-.414.198-.137.392-.415.492-.415.097 0 .295-.136.489-.277.295-.273.59-.415.884-.551.198 0 .981-.414 1.671-.829 1.865-1.102 1.865-1.102 2.455-1.243.294 0 .589-.136.686-.273.198-.141 2.257-.829 2.846-.97l1.377-.136c.783-.278.88-.137 1.175.136.1.141.198.556.198.829 0 .555.391.829.786.555.295-.277.784-1.798.687-2.349-.097-.829-.687-1.102-2.16-.965-.686.136-1.473.414-1.768.414-.784.414-2.16.829-2.552.965-.197 0-.686.278-1.178.551l-.981.415c-.101 0-.59.141-.982.555-.589.273-.884.414-.884.273 0-.136-.1-.136-.197 0-.097.278-.492.556-.981.829l-3.731 2.349c-.589.414-.981.688-1.081.824 0 .141-.097.141-.194.141l-1.179.829-1.376 1.102-2.455 1.935-5.89 5.109-1.962 1.652-1.768 1.521-1.179.829-1.276 1.102a4.89 4.89 0 0 0-.884.828s-.194.141-.294.141c-.098 0-.195.137-.195.137-.1.137-1.376 1.243-1.865 1.38l-.492.414c-.392.414-.59.137-.295-.137.295-.414 1.376-2.071 1.473-2.349l.195-.414 2.063-3.174.884-1.379.786-1.243c.295-.551.784-1.243 1.079-1.658l.589-.828s.687-1.243 1.571-2.623l.981-1.516c.197-.278.294-.556.395-.556.097 0 .097-.136.097-.136 0-.137.295-.692.589-1.107l.59-1.102 1.178-1.935 3.238-5.518.493-.829.391-.551c0-.141 1.768-3.036 2.16-3.592l1.768-2.759.59-.829a9.234 9.234 0 0 1 1.275-1.379 14.334 14.334 0 0 0 1.768-1.521c.392-.273.881-.829 1.176-.965l1.081-.966c.195-.414.489-.555.687-.555.097 0 .392-.273.589-.41.198-.278.392-.278.492-.278.098.137.098.137.098 0-.098-.136 0-.277.097-.277l1.081-.829c1.765-1.102 6.379-3.724 7.558-4.28l1.376-.551c.489-.273 3.141-.965 4.809-1.379 1.965-.278 5.107-.137 5.991.414.294.137.783.414.981.692.492.414.686 1.794.392 2.896l-.098 1.243c-.097.692-1.178 5.386-1.473 5.937l-.295.965-.391 1.38-1.082 2.622-.784 1.521c-1.473 3.174-2.062 4.139-2.551 4.831-.198.278-.295.414-.198.414.198-.136-.097.551-1.57 3.174l-1.082 2.072c-.097.277-1.175 2.071-1.276 1.934v.137c.101.137 0 .273-.194.414-.198.137-.295.415-.295.415 0 .136-.197.551-.492.965-.295.551-.589.965-.589 1.243-.097.137-.195.278-.295.278-.097 0-.194.136-.194.136 0 .137-.395.966-.884 1.794l-1.082 1.794c0 .278-.194.278-.294.137-.098 0-.195 0-.098.141.098.273-.589 1.516-.884 1.657 0 0-.097 0-.097.137 0 0-.492.692-.981 1.657l-1.868 2.759c-.687 1.107-1.47 2.072-2.847 4.003-.294.414-.589.828-.589.969 0 .137-.097.137-.097.137-.097 0-.787.829-1.473 1.931-.784.969-1.373 1.798-1.474 1.798-.097 0-.097.137-.097.137 0 .136-.492.828-.981 1.516l-.981 1.384-.884 1.102-1.474 1.794c-1.078 1.52-2.062 2.763-2.357 3.178-.295.273-.392.551-.392.551 0 .136-.197.414-.392.687l-2.551 3.592-1.279 1.517-1.276 1.657a2.625 2.625 0 0 0-.489.692c0 .137-.492.688-1.082 1.38-.489.687-.981 1.243-.981 1.102l-.294.414c-.295.555-.493.692-3.533 4.28-2.163 2.486-3.634 4.143-5.204 5.523l-1.179 1.243c-1.473 1.794-6.087 5.659-7.855 6.624-.295.278-.59.415-.59.556 0 .136-.097.136-.194.136-.1 0-.787.274-1.376.688l-2.06 1.106-1.279.551c-1.57.692-4.319 1.243-5.203.966Zm0 0" style="fill: rgb(61, 59, 58);" class="fills"/><path d="M142.435 138.478c1.38 0 3.444-1.407 3.937-2.156l.296-.093c.983.186 2.165.282 3.444.282 1.379 0 4.528-.378 6.593-1.222l.886-.375c.198-.093.295-.281.198-.467-.098-.189-.393-.189-.494-.096-1.869.752-4.034 1.501-7.381 1.501-.786 0-1.574-.093-2.165-.282a3.497 3.497 0 0 0-.786-.281v-.842c0-.096 0-.281-.097-.377-.101-.186-.396-.375-.692-.375l-1.278-.092-.195-.096-.789.281-1.672 1.596c-.295.282-1.379 2.064-.886 2.813.295.377.295.377 1.081.281Zm3.149-3.657c-.195-.095-.296-.188-.098-.188.098 0 .198.093.296.093 0 .095 0 .188-.198.095Zm-2.854 2.813c-.097 0-.49-.468.393-1.594.591-.751.886-.844 1.182-.844l.396.281.587.282c.101.093.494.188-.785 1.219-.886.751-1.675.656-1.773.656ZM157.885 138.478c1.38 0 3.444-1.407 3.938-2.156l.295-.093c.984.186 2.165.282 3.444.282 1.38 0 4.528-.378 6.593-1.222l.886-.375c.198-.093.295-.281.198-.467-.097-.189-.393-.189-.493-.096-1.87.752-4.035 1.501-7.382 1.501-.785 0-1.574-.093-2.165-.282a3.504 3.504 0 0 0-.785-.281v-.842c0-.096 0-.281-.098-.377-.1-.186-.396-.375-.691-.375l-1.279-.092-.195-.096-.789.281-1.671 1.596c-.296.282-1.38 2.064-.887 2.813.296.377.296.377 1.081.281Zm3.149-3.657c-.195-.095-.295-.188-.097-.188.097 0 .198.093.295.093 0 .095 0 .188-.198.095Zm-2.853 2.813c-.098 0-.49-.468.393-1.594.59-.751.886-.844 1.181-.844l.396.281.588.282c.1.093.493.188-.786 1.219-.886.751-1.675.656-1.772.656ZM176.78 141.668l2.658-3.094c2.558-3.19 5.609-6.379 7.284-7.694l1.769-1.593 1.38-1.033 1.477-1.03c.587-.375 2.36-1.501 2.853-1.971l1.477-1.126c1.178-.749 3.837-2.812 4.82-3.845 1.773-1.686 2.659-2.627 3.545-3.75.786-1.033.984-1.314.886-1.689-.1-.563-.591-.47-1.675.093-.393.282-1.279.845-1.772 1.315l-1.672 1.219c-.886.563-2.558 2.063-4.035 3.563-1.181 1.219-1.476 1.501-3.051 2.908l-.983.938-3.84 3.752c-.689.656-2.263 1.686-3.837 2.438-.886.374-1.87.937-2.363 1.219l-1.575.937-.688.378-.295-.282c-.688-.844-1.772-.752-3.74.282-1.278.655-3.642 2.626-4.427 3.749-.691.94-.396 1.5.688 1.126.984-.281 2.558-1.03 3.347-1.5l.392-.189c.098 0 .491-.278.984-.56l.984-.47.886-.47 3.346-1.968c.887-.47 1.575-.844 1.672-.844 0 0-.393.467-.883.844-1.282 1.219-6.498 7.409-6.498 7.784.1.47.59.751.886.563Zm15.649-15.759c-.494.189.789-1.219 2.756-2.905l1.279-1.222c.688-.841 1.379-1.5 2.262-2.249l.789-.752 1.279-1.03c2.658-1.878 3.051-1.97 1.574-.281-.886 1.126-1.574 1.686-3.934 3.845-.886.749-2.068 1.689-2.756 2.156l-1.577 1.219Zm-19.781 11.162c-.296 0 .392-.749 1.279-1.501l.788-.656c.098-.093.393-.281.886-.467l.984-.47c.295-.093.984-.093 1.182 0 .194.189-.296.749-1.085 1.126-.493.281-.886.467-.983.563-.098 0-.789.281-1.574.656-.692.374-1.38.749-1.477.749ZM187.507 144.668c.098 0 .198-.467.393-1.5.198-1.689.789-2.908 2.266-4.971 1.279-1.875 5.116-6.565 5.313-6.565.098-.093.195-.189.195-.282.198-.188.396-.281.591-.374l1.772-1.126c.887-.47 1.084-.563 1.87-1.126l.886-.563c.098 0 1.084-.563 1.672-1.03.691-.47 2.561-1.596 2.856-1.782l.984-.659 1.081-.749 1.282-.937 2.46-1.878c1.474-1.03 4.918-3.938 5.116-4.782.198-.752-.393-1.126-1.477-.752-1.081.281-2.558 1.126-3.346 1.689-.883.563-2.065 1.126-2.951 1.782-2.558 1.782-5.216 3.752-7.774 5.909-1.084.937-3.347 3-3.84 3.378l-1.967 1.874c-.198.093-.296.093-.296.093-.097-.093-.198 0-.198 0 0 .189-1.081.47-1.279.378-.097-.096-.194 0-.194.092 0 .189.49.656.688.656h.195c-.296.282-.393.471-.393.563l-.393.471c-.295.281-.493.467-.493.563 0 .092 0 .185-.098.185-.097 0-.393.378-.788.845l-.786.937c-.101 0-.101.189-.101.282-.097.188-.194.281-.292.281l-.295.282c0 .188 0 .188-.101.188-.097 0-.195.093-.195.189 0 .186-.1.282-.198.282 0-.096-.097 0-.097.092 0 .186-.591 1.031-1.084 1.689-.393.56-.49.842-.591 1.031 0 .188-.097.374-.195.655-.493.659-.886 2.345-.691 3.379.101 1.03.198 1.218.493 1.311Zm10.728-15.851c-.295.096-.1 0 .689-.845.886-.937 5.904-5.064 6.102-5.064l3.541-2.719 1.477-.937.789-.656.588-.378 1.577-.937.688-.374.491-.282.198-.093c.097-.096.197-.096.392-.096.101-.092.198 0 .198.189 0 0 0 .093-.097.189l-.198.185v.093l-.295.189-.098.093-.198.281-.295.282-1.377 1.219-1.869 1.407c-.789.659-1.38 1.126-1.477 1.126l-.591.375c-.789.658-3.051 2.159-3.444 2.44-.396.186-1.574.938-1.97 1.219-.591.467-2.165 1.594-2.558 1.782l-.393.282ZM201.187 138.385c1.081-.188 1.772-.374 3.541-1.219l4.431-1.877 1.279-.563c.098-.093.098-.375-.1-.468l-.098-.092h-.295l-.195.092c-5.414 2.253-8.664 3.376-9.251 3.19-.198-.096-.198-.189.097-.47.198-.375.393-.467 1.081-.656 1.084-.282 2.068-.752 3.743-1.875 1.574-1.033 2.262-1.596 2.165-1.878-.198-.563-1.084-.467-2.659.093-1.967.659-4.232 2.345-5.216 3.849-.493.748-.591 1.03-.393 1.404.098.659.296.659 1.87.47Zm.786-3.096c.1-.282 1.772-1.405 2.46-1.594.591-.281 1.574-.655 1.574-.47-.097.096-1.574 1.033-2.46 1.501-1.081.563-1.769.751-1.574.563Zm0 0" style="fill: rgb(61, 59, 58);" class="fills"/><path d="M160.506 216.185v.623h-2.149v1.09h1.923v.635h-1.923v1.102h2.237v.635h-2.928v-4.085ZM166.151 217.012c-.371-.183-.698-.275-.981-.275-.22 0-.389.047-.515.143a.427.427 0 0 0-.176.36c0 .152.075.281.226.383.157.105.377.21.654.311.217.072.402.156.553.252.151.09.27.213.364.371.101.153.151.348.151.587 0 .216-.059.414-.176.587-.11.177-.273.321-.49.432-.22.104-.474.155-.767.155-.261 0-.515-.036-.766-.108a2.272 2.272 0 0 1-.667-.323l.302-.515c.141.105.314.192.515.263.202.066.384.096.553.096.208 0 .39-.042.541-.131a.486.486 0 0 0 .239-.444.489.489 0 0 0-.201-.395 2.044 2.044 0 0 0-.541-.288 5.91 5.91 0 0 1-.616-.251 1.313 1.313 0 0 1-.415-.359c-.11-.15-.163-.342-.163-.575 0-.327.116-.59.352-.791.233-.207.547-.318.943-.335.283 0 .531.032.741.095.217.057.418.141.604.252ZM172.252 216.185v.623h-1.106v3.462h-.691v-3.462h-1.069v-.623ZM175.481 216.185h1.219c.534 0 .981.102 1.333.3.352.201.606.461.766.779.167.32.252.658.252 1.018 0 .401-.101.752-.302 1.054a2.015 2.015 0 0 1-.779.695 2.39 2.39 0 0 1-1.069.239h-1.42Zm1.307 3.45c.302 0 .569-.05.805-.155.232-.111.414-.27.54-.479.132-.216.201-.471.201-.767 0-.318-.072-.587-.213-.803a1.246 1.246 0 0 0-.553-.467 1.604 1.604 0 0 0-.679-.156h-.717v2.827ZM189.005 219.635v.635h-2.715l.213-.203c.393-.366.698-.665.918-.899.226-.239.408-.479.553-.718.151-.24.226-.462.226-.671 0-.207-.069-.363-.201-.467a.699.699 0 0 0-.478-.168c-.21 0-.373.057-.49.168a.53.53 0 0 0-.163.383c0 .233.075.425.226.575l-.415.371c-.144-.078-.26-.215-.352-.407a1.315 1.315 0 0 1-.125-.527c0-.207.053-.401.163-.587.116-.183.283-.327.503-.431.217-.111.471-.168.767-.168.251 0 .471.057.666.168a1.171 1.171 0 0 1 .616 1.03c0 .215-.057.428-.164.635-.1.209-.223.404-.364.587a22.44 22.44 0 0 1-.604.694ZM193.481 220.282c-.321 0-.604-.072-.855-.215a1.552 1.552 0 0 1-.578-.647c-.145-.288-.214-.626-.214-1.018 0-.638.145-1.108.44-1.414.292-.311.694-.467 1.207-.467.308 0 .584.078.829.227.252.144.446.36.591.647.141.282.214.617.214 1.007 0 .401-.073.742-.214 1.03a1.493 1.493 0 0 1-.591.635 1.613 1.613 0 0 1-.829.215Zm-.013-.623c.308 0 .541-.113.691-.347.158-.231.239-.542.239-.934 0-.375-.081-.674-.239-.899-.15-.221-.383-.329-.691-.323-.302-.006-.534.105-.691.335-.151.225-.226.527-.226.911 0 .383.075.691.226.922.157.225.389.335.691.335ZM199.056 216.557v3.713h-.691v-3.078h-.39v-.635ZM204.783 216.557l-1.508 3.713h-.767l1.282-3.078h-1.584v-.635Zm0 0" class="fills"/></g></svg>